<svg xmlns="http://www.w3.org/2000/svg" width="3840" height="2160"><path d="M1740,1152L1726,975L1347,1286Z" fill="#22629f" stroke="#22629f" stroke-width="1.51"/><path d="M1726,975L1224,893L1347,1286Z" fill="#2b5da1" stroke="#2b5da1" stroke-width="1.51"/><path d="M1347,1286L1705,1617L1740,1152Z" fill="#2a699a" stroke="#2a699a" stroke-width="1.51"/><path d="M1224,893L854,1010L1347,1286Z" fill="#3658a1" stroke="#3658a1" stroke-width="1.51"/><path d="M1347,1286L1088,1886L1705,1617Z" fill="#386d94" stroke="#386d94" stroke-width="1.51"/><path d="M1224,893L703,551L854,1010Z" fill="#464ea2" stroke="#464ea2" stroke-width="1.51"/><path d="M1726,975L1281,364L1224,893Z" fill="#3c54a1" stroke="#3c54a1" stroke-width="1.51"/><path d="M1740,1152L2226,1377L1726,975Z" fill="#0c679e" stroke="#0c679e" stroke-width="1.51"/><path d="M1726,975L1562,240L1281,364Z" fill="#4250a1" stroke="#4250a1" stroke-width="1.51"/><path d="M1705,1617L2226,1377L1740,1152Z" fill="#186e99" stroke="#186e99" stroke-width="1.51"/><path d="M854,1010L701,1229L1347,1286Z" fill="#3d599e" stroke="#3d599e" stroke-width="1.51"/><path d="M241,829L701,1229L854,1010Z" fill="#464da1" stroke="#464da1" stroke-width="1.51"/><path d="M2144,281L1562,240L1726,975Z" fill="#3b55a1" stroke="#3b55a1" stroke-width="1.51"/><path d="M2226,1377L2275,697L1726,975Z" fill="#15679e" stroke="#15679e" stroke-width="1.51"/><path d="M701,1229L1088,1886L1347,1286Z" fill="#416397" stroke="#416397" stroke-width="1.51"/><path d="M1281,364L703,551L1224,893Z" fill="#4a4ba1" stroke="#4a4ba1" stroke-width="1.51"/><path d="M778,-228L703,551L1281,364Z" fill="#583ca2" stroke="#583ca2" stroke-width="1.51"/><path d="M2275,697L2144,281L1726,975Z" fill="#335d9f" stroke="#335d9f" stroke-width="1.51"/><path d="M1705,1617L2163,1871L2226,1377Z" fill="#1d7891" stroke="#1d7891" stroke-width="1.51"/><path d="M1724,2091L2163,1871L1705,1617Z" fill="#237d8d" stroke="#237d8d" stroke-width="1.51"/><path d="M1088,1886L1724,2091L1705,1617Z" fill="#36788d" stroke="#36788d" stroke-width="1.51"/><path d="M1562,240L1328,57L1281,364Z" fill="#4f46a2" stroke="#4f46a2" stroke-width="1.51"/><path d="M1811,-82L1328,57L1562,240Z" fill="#4d46a2" stroke="#4d46a2" stroke-width="1.51"/><path d="M2275,697L2767,287L2144,281Z" fill="#435f99" stroke="#435f99" stroke-width="1.51"/><path d="M2226,1377L2533,791L2275,697Z" fill="#226b99" stroke="#226b99" stroke-width="1.51"/><path d="M2781,1217L2533,791L2226,1377Z" fill="#1a7396" stroke="#1a7396" stroke-width="1.51"/><path d="M1088,1886L1284,2283L1724,2091Z" fill="#3d7a89" stroke="#3d7a89" stroke-width="1.51"/><path d="M701,1229L672,1895L1088,1886Z" fill="#4a6693" stroke="#4a6693" stroke-width="1.51"/><path d="M424,1783L672,1895L701,1229Z" fill="#506194" stroke="#506194" stroke-width="1.51"/><path d="M2163,1871L2455,1770L2226,1377Z" fill="#207f8b" stroke="#207f8b" stroke-width="1.51"/><path d="M2577,2299L2455,1770L2163,1871Z" fill="#1e8c81" stroke="#1e8c81" stroke-width="1.51"/><path d="M2144,281L1811,-82L1562,240Z" fill="#484ca1" stroke="#484ca1" stroke-width="1.51"/><path d="M937,2317L1284,2283L1088,1886Z" fill="#477687" stroke="#477687" stroke-width="1.51"/><path d="M2055,2601L2114,2186L1724,2091Z" fill="#238384" stroke="#238384" stroke-width="1.51"/><path d="M1724,2091L2114,2186L2163,1871Z" fill="#208487" stroke="#208487" stroke-width="1.51"/><path d="M703,551L241,829L854,1010Z" fill="#4e46a2" stroke="#4e46a2" stroke-width="1.51"/><path d="M209,506L241,829L703,551Z" fill="#533ea2" stroke="#533ea2" stroke-width="1.51"/><path d="M135,1473L424,1783L701,1229Z" fill="#4e5a98" stroke="#4e5a98" stroke-width="1.51"/><path d="M672,1895L937,2317L1088,1886Z" fill="#4c738a" stroke="#4c738a" stroke-width="1.51"/><path d="M2455,1770L2781,1217L2226,1377Z" fill="#1f7d8d" stroke="#1f7d8d" stroke-width="1.51"/><path d="M708,2638L937,2317L286,2338Z" fill="#546f84" stroke="#546f84" stroke-width="1.51"/><path d="M477,-170L209,506L703,551Z" fill="#5c34a2" stroke="#5c34a2" stroke-width="1.51"/><path d="M-21,1270L135,1473L241,829Z" fill="#454d9e" stroke="#454d9e" stroke-width="1.51"/><path d="M241,829L135,1473L701,1229Z" fill="#474f9f" stroke="#474f9f" stroke-width="1.51"/><path d="M1328,57L778,-228L1281,364Z" fill="#553ca2" stroke="#553ca2" stroke-width="1.51"/><path d="M1161,-519L778,-228L1328,57Z" fill="#5136a1" stroke="#5136a1" stroke-width="1.51"/><path d="M1633,-640L1161,-519L1328,57Z" fill="#4a3ba1" stroke="#4a3ba1" stroke-width="1.51"/><path d="M2144,281L2227,-225L1811,-82Z" fill="#464f9f" stroke="#464f9f" stroke-width="1.51"/><path d="M2473,-178L2227,-225L2144,281Z" fill="#49539b" stroke="#49539b" stroke-width="1.51"/><path d="M2767,287L2275,697L2533,791Z" fill="#3d6697" stroke="#3d6697" stroke-width="1.51"/><path d="M3034,688L2767,287L2533,791Z" fill="#3f6b93" stroke="#3f6b93" stroke-width="1.51"/><path d="M-164,847L-21,1270L241,829Z" fill="#4445a1" stroke="#4445a1" stroke-width="1.51"/><path d="M2781,1217L3034,688L2533,791Z" fill="#2e7392" stroke="#2e7392" stroke-width="1.51"/><path d="M1284,2283L1787,2821L1724,2091Z" fill="#367e83" stroke="#367e83" stroke-width="1.51"/><path d="M937,2317L1271,2658L1284,2283Z" fill="#467783" stroke="#467783" stroke-width="1.51"/><path d="M3095,-139L2473,-178L2767,287Z" fill="#4f5f93" stroke="#4f5f93" stroke-width="1.51"/><path d="M2767,287L2473,-178L2144,281Z" fill="#4e5a98" stroke="#4e5a98" stroke-width="1.51"/><path d="M778,-228L477,-170L703,551Z" fill="#5d30a2" stroke="#5d30a2" stroke-width="1.51"/><path d="M3000,1923L3106,1258L2781,1217Z" fill="#1f8785" stroke="#1f8785" stroke-width="1.51"/><path d="M2114,2186L2577,2299L2163,1871Z" fill="#208a81" stroke="#208a81" stroke-width="1.51"/><path d="M1787,2821L2055,2601L1724,2091Z" fill="#298181" stroke="#298181" stroke-width="1.51"/><path d="M2781,1217L3106,1258L3034,688Z" fill="#217b8f" stroke="#217b8f" stroke-width="1.51"/><path d="M3000,1923L2781,1217L2455,1770Z" fill="#1f8884" stroke="#1f8884" stroke-width="1.51"/><path d="M2055,2601L2577,2299L2114,2186Z" fill="#22897d" stroke="#22897d" stroke-width="1.51"/><path d="M2208,-405L1811,-82L2227,-225Z" fill="#434c9e" stroke="#434c9e" stroke-width="1.51"/><path d="M1633,-640L1328,57L1811,-82Z" fill="#4841a1" stroke="#4841a1" stroke-width="1.51"/><path d="M778,-228L873,-500L477,-170Z" fill="#572ca2" stroke="#572ca2" stroke-width="1.51"/><path d="M2473,-178L2208,-405L2227,-225Z" fill="#46509b" stroke="#46509b" stroke-width="1.51"/><path d="M209,506L-164,847L241,829Z" fill="#4d3fa1" stroke="#4d3fa1" stroke-width="1.51"/><path d="M-295,555L-164,847L209,506Z" fill="#4e3aa1" stroke="#4e3aa1" stroke-width="1.51"/><path d="M1161,-519L873,-500L778,-228Z" fill="#512fa1" stroke="#512fa1" stroke-width="1.51"/><path d="M2577,2299L3000,1923L2455,1770Z" fill="#1a927c" stroke="#1a927c" stroke-width="1.51"/><path d="M1161,-519L330,-684L873,-500Z" fill="#5229a1" stroke="#5229a1" stroke-width="1.51"/><path d="M2208,-405L1633,-640L1811,-82Z" fill="#3e45a1" stroke="#3e45a1" stroke-width="1.51"/><path d="M3034,688L3098,413L2767,287Z" fill="#466d90" stroke="#466d90" stroke-width="1.51"/><path d="M3382,678L3098,413L3034,688Z" fill="#42748c" stroke="#42748c" stroke-width="1.51"/><path d="M937,2317L708,2638L1271,2658Z" fill="#4c7481" stroke="#4c7481" stroke-width="1.51"/><path d="M286,2338L937,2317L672,1895Z" fill="#546e88" stroke="#546e88" stroke-width="1.51"/><path d="M286,2338L672,1895L424,1783Z" fill="#556c8b" stroke="#556c8b" stroke-width="1.51"/><path d="M286,2338L424,1783L-174,2134Z" fill="#53698a" stroke="#53698a" stroke-width="1.51"/><path d="M-225,1770L135,1473L-21,1270Z" fill="#4a5697" stroke="#4a5697" stroke-width="1.51"/><path d="M-225,1770L424,1783L135,1473Z" fill="#4f5e93" stroke="#4f5e93" stroke-width="1.51"/><path d="M1271,2658L1787,2821L1284,2283Z" fill="#3d7b80" stroke="#3d7b80" stroke-width="1.51"/><path d="M2055,2601L2758,2685L2577,2299Z" fill="#228e77" stroke="#228e77" stroke-width="1.51"/><path d="M156,2816L1787,2821L1271,2658Z" fill="#4a767e" stroke="#4a767e" stroke-width="1.51"/><path d="M-506,1650L-225,1770L-21,1270Z" fill="#4a5695" stroke="#4a5695" stroke-width="1.51"/><path d="M-621,942L-506,1650L-21,1270Z" fill="#434c9c" stroke="#434c9c" stroke-width="1.51"/><path d="M-179,40L-295,555L209,506Z" fill="#5530a2" stroke="#5530a2" stroke-width="1.51"/><path d="M2758,2685L3096,2059L2577,2299Z" fill="#199573" stroke="#199573" stroke-width="1.51"/><path d="M2577,2299L3096,2059L3000,1923Z" fill="#169776" stroke="#169776" stroke-width="1.51"/><path d="M3472,1658L3428,1424L3106,1258Z" fill="#1d8e7f" stroke="#1d8e7f" stroke-width="1.51"/><path d="M3098,413L3095,-139L2767,287Z" fill="#526690" stroke="#526690" stroke-width="1.51"/><path d="M3106,1258L3382,678L3034,688Z" fill="#327b8c" stroke="#327b8c" stroke-width="1.51"/><path d="M3428,1424L3382,678L3106,1258Z" fill="#1f8488" stroke="#1f8488" stroke-width="1.51"/><path d="M3472,1658L3106,1258L3000,1923Z" fill="#1b917d" stroke="#1b917d" stroke-width="1.51"/><path d="M-279,-529L-179,40L477,-170Z" fill="#5621a1" stroke="#5621a1" stroke-width="1.51"/><path d="M477,-170L-179,40L209,506Z" fill="#5c2aa2" stroke="#5c2aa2" stroke-width="1.51"/><path d="M-225,1770L-174,2134L424,1783Z" fill="#51648d" stroke="#51648d" stroke-width="1.51"/><path d="M286,2338L156,2816L708,2638Z" fill="#566b81" stroke="#566b81" stroke-width="1.51"/><path d="M2208,-405L2627,-646L1633,-640Z" fill="#40489c" stroke="#40489c" stroke-width="1.51"/><path d="M2473,-178L2627,-646L2208,-405Z" fill="#465199" stroke="#465199" stroke-width="1.51"/><path d="M3441,290L3095,-139L3098,413Z" fill="#546b8d" stroke="#546b8d" stroke-width="1.51"/><path d="M1787,2821L2758,2685L2055,2601Z" fill="#268879" stroke="#268879" stroke-width="1.51"/><path d="M3096,2059L3472,1658L3000,1923Z" fill="#119976" stroke="#119976" stroke-width="1.51"/><path d="M3539,-18L3441,290L3889,448Z" fill="#536f88" stroke="#536f88" stroke-width="1.51"/><path d="M3653,2265L3472,1658L3096,2059Z" fill="#02a06f" stroke="#02a06f" stroke-width="1.51"/><path d="M3052,-401L2627,-646L2473,-178Z" fill="#4a5795" stroke="#4a5795" stroke-width="1.51"/><path d="M-225,1770L-506,1650L-174,2134Z" fill="#4e5f8f" stroke="#4e5f8f" stroke-width="1.51"/><path d="M-621,942L-21,1270L-164,847Z" fill="#4044a1" stroke="#4044a1" stroke-width="1.51"/><path d="M3382,678L3441,290L3098,413Z" fill="#49748a" stroke="#49748a" stroke-width="1.51"/><path d="M3441,290L3382,678L3889,448Z" fill="#4a7487" stroke="#4a7487" stroke-width="1.51"/><path d="M873,-500L330,-684L477,-170Z" fill="#5724a2" stroke="#5724a2" stroke-width="1.51"/><path d="M1633,-640L330,-684L1161,-519Z" fill="#4c2fa1" stroke="#4c2fa1" stroke-width="1.51"/><path d="M2627,-646L330,-684L1633,-640Z" fill="#4239a1" stroke="#4239a1" stroke-width="1.51"/><path d="M-295,555L-621,942L-164,847Z" fill="#473ca1" stroke="#473ca1" stroke-width="1.51"/><path d="M-505,282L-621,942L-295,555Z" fill="#4c34a1" stroke="#4c34a1" stroke-width="1.51"/><path d="M3569,-475L3052,-401L3095,-139Z" fill="#50648c" stroke="#50648c" stroke-width="1.51"/><path d="M3095,-139L3052,-401L2473,-178Z" fill="#4e5d92" stroke="#4e5d92" stroke-width="1.51"/><path d="M-179,40L-505,282L-295,555Z" fill="#552aa2" stroke="#552aa2" stroke-width="1.51"/><path d="M-485,-181L-505,282L-179,40Z" fill="#5621a2" stroke="#5621a2" stroke-width="1.51"/><path d="M708,2638L156,2816L1271,2658Z" fill="#53707f" stroke="#53707f" stroke-width="1.51"/><path d="M-113,2715L156,2816L286,2338Z" fill="#556981" stroke="#556981" stroke-width="1.51"/><path d="M-113,2715L286,2338L-174,2134Z" fill="#546884" stroke="#546884" stroke-width="1.51"/><path d="M2758,2685L3051,2721L3096,2059Z" fill="#16996e" stroke="#16996e" stroke-width="1.51"/><path d="M1787,2821L3051,2721L2758,2685Z" fill="#228f72" stroke="#228f72" stroke-width="1.51"/><path d="M-459,2649L-113,2715L-174,2134Z" fill="#536583" stroke="#536583" stroke-width="1.51"/><path d="M-645,2390L-459,2649L-174,2134Z" fill="#516385" stroke="#516385" stroke-width="1.51"/><path d="M-621,942L-786,1431L-506,1650Z" fill="#424b9a" stroke="#424b9a" stroke-width="1.51"/><path d="M-505,282L-786,1431L-621,942Z" fill="#413ca0" stroke="#413ca0" stroke-width="1.51"/><path d="M3441,290L3539,-18L3095,-139Z" fill="#546b8b" stroke="#546b8b" stroke-width="1.51"/><path d="M3821,1170L3382,678L3428,1424Z" fill="#228386" stroke="#228386" stroke-width="1.51"/><path d="M3472,1658L3821,1170L3428,1424Z" fill="#1f8d7d" stroke="#1f8d7d" stroke-width="1.51"/><path d="M4014,1905L3821,1170L3472,1658Z" fill="#1d9277" stroke="#1d9277" stroke-width="1.51"/><path d="M-505,282L-485,-181L-786,1431Z" fill="#4c30a1" stroke="#4c30a1" stroke-width="1.51"/><path d="M-279,-529L-485,-181L-179,40Z" fill="#521ca1" stroke="#521ca1" stroke-width="1.51"/><path d="M3821,1170L3869,1019L3382,678Z" fill="#2e7f85" stroke="#2e7f85" stroke-width="1.51"/><path d="M330,-684L-279,-529L477,-170Z" fill="#541ea2" stroke="#541ea2" stroke-width="1.51"/><path d="M4477,1309L4312,733L3869,1019Z" fill="#2c817f" stroke="#2c817f" stroke-width="1.51"/><path d="M3051,2721L3653,2265L3096,2059Z" fill="#059f6b" stroke="#059f6b" stroke-width="1.51"/><path d="M3869,1019L3889,448L3382,678Z" fill="#3e7a85" stroke="#3e7a85" stroke-width="1.51"/><path d="M-113,2715L-459,2649L156,2816Z" fill="#54667f" stroke="#54667f" stroke-width="1.51"/><path d="M-645,2390L-174,2134L-506,1650Z" fill="#50638a" stroke="#50638a" stroke-width="1.51"/><path d="M-786,1431L-645,2390L-506,1650Z" fill="#4b5b8f" stroke="#4b5b8f" stroke-width="1.51"/><path d="M3052,-401L3569,-475L2627,-646Z" fill="#4d5e8e" stroke="#4d5e8e" stroke-width="1.51"/><path d="M3539,-18L3569,-475L3095,-139Z" fill="#52678a" stroke="#52678a" stroke-width="1.51"/><path d="M4062,-149L3569,-475L3539,-18Z" fill="#536786" stroke="#536786" stroke-width="1.51"/><path d="M3653,2265L4014,1905L3472,1658Z" fill="#099e6d" stroke="#099e6d" stroke-width="1.51"/><path d="M3869,1019L4312,733L3889,448Z" fill="#3e7a82" stroke="#3e7a82" stroke-width="1.51"/><path d="M330,-684L-471,-693L-279,-529Z" fill="#4e14a1" stroke="#4e14a1" stroke-width="1.51"/><path d="M-279,-529L-471,-693L-485,-181Z" fill="#4d14a1" stroke="#4d14a1" stroke-width="1.51"/><path d="M-485,-181L-471,-693L-786,1431Z" fill="#5522a1" stroke="#5522a1" stroke-width="1.51"/><path d="M3653,2265L3945,2134L4014,1905Z" fill="#03a068" stroke="#03a068" stroke-width="1.51"/><path d="M3994,2774L3945,2134L3653,2265Z" fill="#04a063" stroke="#04a063" stroke-width="1.51"/><path d="M3051,2721L3594,2795L3653,2265Z" fill="#04a064" stroke="#04a064" stroke-width="1.51"/><path d="M1787,2821L3594,2795L3051,2721Z" fill="#1c956c" stroke="#1c956c" stroke-width="1.51"/><path d="M3889,448L4062,-149L3539,-18Z" fill="#566c85" stroke="#566c85" stroke-width="1.51"/><path d="M4477,1309L3869,1019L3821,1170Z" fill="#25857f" stroke="#25857f" stroke-width="1.51"/><path d="M4503,73L4062,-149L3889,448Z" fill="#576d82" stroke="#576d82" stroke-width="1.51"/><path d="M4014,1905L4477,1309L3821,1170Z" fill="#218e76" stroke="#218e76" stroke-width="1.51"/><path d="M4503,73L4154,-448L4062,-149Z" fill="#556881" stroke="#556881" stroke-width="1.51"/><path d="M4592,1871L4477,1309L4014,1905Z" fill="#1b966d" stroke="#1b966d" stroke-width="1.51"/><path d="M4289,2337L4014,1905L3945,2134Z" fill="#04a065" stroke="#04a065" stroke-width="1.51"/><path d="M3594,2795L3994,2774L3653,2265Z" fill="#05a060" stroke="#05a060" stroke-width="1.51"/><path d="M3994,2774L4289,2337L3945,2134Z" fill="#04a060" stroke="#04a060" stroke-width="1.51"/><path d="M4513,317L3889,448L4312,733Z" fill="#4a7580" stroke="#4a7580" stroke-width="1.51"/><path d="M4062,-149L4154,-448L3569,-475Z" fill="#526584" stroke="#526584" stroke-width="1.51"/><path d="M3569,-475L4334,-568L2627,-646Z" fill="#4f6288" stroke="#4f6288" stroke-width="1.51"/><path d="M4477,1309L4513,317L4312,733Z" fill="#3d7c7d" stroke="#3d7c7d" stroke-width="1.51"/><path d="M4513,317L4503,73L3889,448Z" fill="#537080" stroke="#537080" stroke-width="1.51"/><path d="M4477,1309L4592,1871L4513,317Z" fill="#28857a" stroke="#28857a" stroke-width="1.51"/><path d="M4513,317L4592,1871L4503,73Z" fill="#3f7b7d" stroke="#3f7b7d" stroke-width="1.51"/><path d="M4289,2337L4592,1871L4014,1905Z" fill="#04a064" stroke="#04a064" stroke-width="1.51"/><path d="M4289,2337L4378,2570L4592,1871Z" fill="#05a05f" stroke="#05a05f" stroke-width="1.51"/><path d="M3994,2774L4378,2570L4289,2337Z" fill="#04a05b" stroke="#04a05b" stroke-width="1.51"/><path d="M4503,73L4334,-568L4154,-448Z" fill="#536680" stroke="#536680" stroke-width="1.51"/><path d="M4154,-448L4334,-568L3569,-475Z" fill="#516383" stroke="#516383" stroke-width="1.51"/></svg>